<?xml version="1.0" encoding="utf-8"?>
<svg version="1.1" xmlns="http://www.w3.org/2000/svg"
	 viewBox="0 0 25 25">
<path fill="currentColor" d="M17.9,17c0-0.2-0.1-0.3-0.2-0.4l-3.9-3.9l3.9-3.9c0.2-0.2,0.3-0.4,0.3-0.6c0-0.3-0.1-0.5-0.3-0.6
	c-0.2-0.2-0.4-0.3-0.6-0.3s-0.5,0.1-0.6,0.3l-3.9,3.9L8.6,7.6C8.5,7.5,8.3,7.4,8,7.4c-0.3,0-0.5,0.1-0.6,0.3C7.2,7.8,7.1,8,7.1,8.3
	c0,0.3,0.1,0.5,0.3,0.6l3.9,3.9l-3.9,3.9c-0.1,0.1-0.2,0.2-0.2,0.4c0,0.2,0,0.3,0,0.5c0,0.2,0.1,0.3,0.2,0.4
	c0.2,0.2,0.4,0.3,0.6,0.3c0.3,0,0.5-0.1,0.6-0.3l3.9-3.9l3.9,3.9c0.2,0.2,0.4,0.3,0.6,0.3s0.5-0.1,0.6-0.3c0.1-0.1,0.2-0.3,0.2-0.4
	C17.9,17.3,17.9,17.2,17.9,17z"/>
</svg>
